<?xml version="1.0" encoding="utf-8"?>
<!-- Generator: Adobe Illustrator 28.0.0, SVG Export Plug-In . SVG Version: 6.00 Build 0)  -->
<svg version="1.1" id="Capa_1" xmlns="http://www.w3.org/2000/svg" xmlns:xlink="http://www.w3.org/1999/xlink" x="0px" y="0px"
	 viewBox="0 0 512 512" style="enable-background:new 0 0 512 512;" xml:space="preserve">
<style type="text/css">
	.st0{fill:#414345;}
</style>
<g>
	<path class="st0" d="M400.5,374.1L342.5,316c43.5-58.1,31.6-140.3-26.5-183.8s-140.4-31.6-183.8,26.5S100.6,299,158.6,342.4
		c46.6,34.9,110.7,34.9,157.3,0l58.1,58.1c7.3,7.3,19.1,7.3,26.4,0C407.8,393.2,407.8,381.4,400.5,374.1L400.5,374.1z M237.8,331.2
		c-51.6,0-93.4-41.8-93.4-93.4s41.8-93.4,93.4-93.4s93.4,41.8,93.4,93.4C331.2,289.4,289.4,331.2,237.8,331.2z"/>
</g>
</svg>
