<?xml version="1.0" encoding="utf-8"?>
<!-- Generator: Adobe Illustrator 28.0.0, SVG Export Plug-In . SVG Version: 6.00 Build 0)  -->
<svg version="1.1" id="Camada_1" xmlns="http://www.w3.org/2000/svg" xmlns:xlink="http://www.w3.org/1999/xlink" x="0px" y="0px"
	 viewBox="0 0 1366 768" style="enable-background:new 0 0 1366 768;" xml:space="preserve">
<style type="text/css">
	.st0{fill:#1297E0;}
	.st1{fill:#34CAEF;}
</style>
<g>
	<circle class="st0" cx="700" cy="401" r="375.4"/>
	<ellipse cx="699.2" cy="389.7" rx="299.5" ry="298"/>
	<ellipse class="st1" cx="691.7" cy="304.1" rx="126.9" ry="149.4"/>
	<ellipse cx="691.7" cy="304.9" rx="76.6" ry="97.6"/>
	<path class="st1" d="M906.4,552.6c-8.3,10.5-87.8,105.1-217.7,99.1c-117.9-5.3-185.4-88.6-195.9-100.6c4.5-16.5,15-43.5,38.3-70.6
		c16.5-18.8,33.8-30.8,46.5-38.3c1.5,3,45.8,69.1,125.4,66.8c72.8-2.3,111.9-61.6,114.9-66.8c12,4.5,32.3,13.5,50.3,32.3
		C897.4,503.8,904.2,539.1,906.4,552.6z"/>
</g>
</svg>
