<svg xmlns="http://www.w3.org/2000/svg" xmlns:xlink="http://www.w3.org/1999/xlink" width="500" zoomAndPan="magnify" viewBox="0 0 375 374.999991" height="500" preserveAspectRatio="xMidYMid meet" version="1.0"><defs><clipPath id="a8e20cc154"><path d="M 112.5 159.125 L 262.5 159.125 L 262.5 216.125 L 112.5 216.125 Z M 112.5 159.125 " clip-rule="nonzero"/></clipPath><clipPath id="9d07f15544"><path d="M 154 220.125 L 173.289062 220.125 L 173.289062 247.875 L 154 247.875 Z M 154 220.125 " clip-rule="nonzero"/></clipPath><clipPath id="397697d801"><path d="M 142.539062 220.125 L 156 220.125 L 156 223 L 142.539062 223 Z M 142.539062 220.125 " clip-rule="nonzero"/></clipPath><clipPath id="b1e408a2c6"><path d="M 158 225 L 162 225 L 162 247.875 L 158 247.875 Z M 158 225 " clip-rule="nonzero"/></clipPath><clipPath id="a930f64b69"><path d="M 166.402344 224.695312 L 183.652344 224.695312 L 183.652344 247.195312 L 166.402344 247.195312 Z M 166.402344 224.695312 " clip-rule="nonzero"/></clipPath><clipPath id="c22b36147b"><path d="M 183.933594 221.785156 L 208.683594 221.785156 L 208.683594 250.285156 L 183.933594 250.285156 Z M 183.933594 221.785156 " clip-rule="nonzero"/></clipPath><clipPath id="00a3b04f31"><path d="M 208.730469 224.488281 L 233.480469 224.488281 L 233.480469 247.738281 L 208.730469 247.738281 Z M 208.730469 224.488281 " clip-rule="nonzero"/></clipPath></defs><g clip-path="url(#a8e20cc154)"><path fill="#000000" d="M 121.851562 160.039062 L 182.128906 211.578125 L 182.128906 215.921875 L 181.082031 215.921875 L 133.71875 175.460938 L 133.71875 199.839844 C 133.71875 205.152344 134.398438 208.839844 135.757812 210.902344 C 137.113281 212.964844 139.257812 214.308594 142.183594 214.9375 L 142.183594 215.921875 C 136.910156 215.503906 133.328125 215.296875 131.441406 215.296875 C 129.3125 215.296875 126.097656 215.503906 121.800781 215.921875 L 121.800781 214.9375 C 124.796875 214.238281 126.832031 212.824219 127.914062 210.691406 C 128.992188 208.558594 129.53125 204.785156 129.53125 199.367188 L 129.480469 172 L 125.714844 168.800781 C 120.492188 164.328125 116.085938 161.5 112.5 160.308594 L 112.5 159.324219 Z M 182.015625 159.949219 C 180.949219 160.007812 180.148438 160.039062 179.613281 160.039062 C 177.972656 160.039062 174.875 159.859375 170.308594 159.503906 C 169.128906 159.382812 168.515625 159.324219 168.484375 159.324219 L 168.484375 160.308594 C 170.816406 160.695312 172.730469 161.5 174.226562 162.71875 C 175.726562 163.980469 176.71875 165.535156 177.207031 167.386719 C 177.691406 169.34375 177.9375 172.140625 177.9375 175.777344 L 177.9375 188.117188 L 182.015625 188.117188 Z M 190.625 215.921875 L 190.726562 215.921875 L 190.726562 215.816406 Z M 177.9375 188.117188 L 177.9375 197.535156 L 133.984375 160.039062 L 127.753906 160.039062 L 182.015625 206.34375 L 182.015625 188.117188 Z M 253.339844 159.859375 C 251.558594 159.859375 248.730469 159.625 244.851562 159.144531 L 244.851562 160.128906 C 247.925781 160.902344 249.460938 162.910156 249.460938 166.15625 C 249.460938 168.601562 248.542969 172.082031 246.695312 176.585938 L 238.457031 196.757812 L 228.726562 173.28125 C 227.121094 169.4375 226.324219 166.523438 226.324219 164.53125 C 226.324219 162.398438 227.507812 160.929688 229.875 160.128906 L 229.875 159.144531 C 226.707031 159.421875 222.996094 159.664062 218.742188 159.859375 L 238.457031 207.144531 L 251.085938 176.34375 C 253.320312 170.957031 255.191406 167.234375 256.691406 165.167969 C 258.121094 163.210938 260.058594 161.527344 262.507812 160.128906 L 262.507812 159.144531 C 259.539062 159.625 256.484375 159.859375 253.339844 159.859375 Z M 214.617188 159.859375 C 211.480469 159.78125 208.183594 159.542969 204.738281 159.144531 L 204.738281 160.128906 C 207.351562 160.96875 209.316406 162.140625 210.644531 163.644531 C 212 165.148438 213.410156 167.671875 214.875 171.203125 L 218.171875 179.082031 L 190.726562 208.699219 L 190.726562 175.773438 C 190.726562 172.136719 190.96875 169.34375 191.457031 167.386719 C 191.941406 165.53125 192.933594 163.980469 194.433594 162.71875 C 195.933594 161.496094 197.847656 160.691406 200.179688 160.304688 L 200.179688 159.324219 C 200.144531 159.324219 199.535156 159.382812 198.355469 159.503906 C 193.789062 159.859375 190.6875 160.039062 189.050781 160.039062 C 188.511719 160.039062 187.710938 160.007812 186.644531 159.949219 L 186.644531 215.921875 L 190.625 215.921875 L 190.726562 215.816406 L 220.257812 184.039062 L 233.726562 216.101562 L 234.820312 216.101562 L 236.429688 212.015625 Z M 214.617188 159.859375 " fill-opacity="1" fill-rule="nonzero"/></g><g clip-path="url(#9d07f15544)"><path fill="#1a1a1a" d="M 157.652344 220.136719 L 154.5 223.351562 L 154.5 245.453125 L 156.863281 247.867188 L 156.863281 224.558594 L 159.164062 222.210938 L 170.332031 222.210938 L 173.289062 220.136719 Z M 157.652344 220.136719 " fill-opacity="1" fill-rule="nonzero"/></g><g clip-path="url(#397697d801)"><path fill="#1a1a1a" d="M 142.539062 220.136719 L 145.496094 222.210938 L 152.328125 222.210938 L 155.285156 220.136719 Z M 142.539062 220.136719 " fill-opacity="1" fill-rule="nonzero"/></g><g clip-path="url(#b1e408a2c6)"><path fill="#1a1a1a" d="M 158.835938 247.867188 L 161.199219 245.453125 L 161.199219 225.5625 L 158.835938 225.5625 Z M 158.835938 247.867188 " fill-opacity="1" fill-rule="nonzero"/></g><g clip-path="url(#a930f64b69)"><path fill="#000000" d="M 171.773438 243.296875 L 183.652344 243.296875 L 183.652344 247.195312 L 168.65625 247.195312 Z M 166.402344 246.46875 L 166.402344 239.796875 L 171.738281 239.796875 Z M 166.402344 233.996094 L 181.558594 233.996094 L 181.558594 237.894531 L 166.402344 237.894531 Z M 166.402344 224.695312 L 183.652344 224.695312 L 183.652344 228.597656 L 166.402344 228.597656 Z M 166.402344 224.695312 " fill-opacity="1" fill-rule="evenodd"/></g><g clip-path="url(#c22b36147b)"><path fill="#000000" d="M 196.820312 222.085938 L 208.164062 228.617188 L 208.683594 228.914062 L 208.683594 230.09375 L 208.164062 230.390625 L 201.976562 233.953125 L 196.308594 230.6875 L 191.675781 233.359375 L 191.675781 238.707031 L 196.308594 241.378906 L 201.976562 238.113281 L 204.039062 239.300781 C 205.585938 240.195312 207.136719 241.085938 208.683594 241.980469 L 208.683594 243.15625 L 208.164062 243.453125 L 196.820312 249.984375 L 196.308594 250.28125 L 194.246094 249.09375 L 197.082031 247.460938 C 199.917969 245.828125 202.753906 244.195312 205.582031 242.5625 L 201.972656 240.484375 L 192.699219 245.839844 L 191.925781 246.28125 L 190.636719 247.023438 L 190.125 246.726562 L 184.453125 243.464844 L 183.933594 243.160156 L 183.933594 228.921875 L 184.453125 228.625 L 190.125 225.359375 L 190.636719 225.0625 L 191.152344 225.359375 L 201.972656 231.59375 L 205.582031 229.515625 L 201.457031 227.144531 L 198.394531 225.363281 L 196.308594 224.164062 L 194.246094 222.972656 L 195.792969 222.085938 L 196.308594 221.789062 Z M 194.246094 242.574219 L 189.601562 239.894531 L 189.601562 232.1875 L 194.246094 229.511719 L 190.636719 227.433594 L 186.007812 230.105469 L 186.007812 241.980469 L 190.636719 244.648438 Z M 194.246094 242.574219 " fill-opacity="1" fill-rule="evenodd"/></g><g clip-path="url(#00a3b04f31)"><path fill="#000000" d="M 214.238281 228.410156 L 214.238281 243.816406 L 218.179688 247.738281 L 218.179688 236.6875 L 224.027344 236.6875 L 224.027344 247.738281 L 227.972656 243.816406 L 227.972656 228.410156 L 231.863281 228.410156 L 233.472656 224.488281 L 224.027344 224.488281 L 224.027344 232.769531 L 218.179688 232.769531 L 218.179688 224.488281 L 208.738281 224.488281 L 210.347656 228.410156 Z M 214.238281 228.410156 " fill-opacity="1" fill-rule="evenodd"/></g></svg>